<svg width="1440" height="1024" viewBox="0 0 1440 1024" fill="none" xmlns="http://www.w3.org/2000/svg">
<g clip-path="url(#clip0_118_2)">
<rect width="1440" height="1024" fill="white"/>
<path d="M0 764H1032L343.5 1024H0V764Z" fill="#CEC4C4" stroke="black"/>
<path d="M1440 764H1032V89H1440V764Z" fill="white" stroke="black"/>
<path d="M1430 754H1042V99H1430V754Z" fill="#4DDBFF" stroke="black"/>
<path d="M1429.5 217C1413.81 217 1398.27 213.961 1383.77 208.056C1369.27 202.151 1356.1 193.496 1345 182.585C1333.9 171.674 1325.1 158.721 1319.1 144.465C1313.09 130.209 1310 114.93 1310 99.4999L1429.5 99.5L1429.5 217Z" fill="#FBFF22"/>
<rect x="-8" y="89" width="1040" height="675" fill="#3EB5D3"/>
<rect width="1440" height="67" fill="#AEAEAE"/>
<rect x="740" y="235" width="23" height="26" fill="#D9D9D9"/>
<path d="M166.846 265L158 261H752.679L763 265H166.846Z" fill="#D9D9D9"/>
<path d="M763 265L752.5 261H763V265Z" fill="#D9D9D9"/>
<path d="M978 67H0V89H1032L978 67Z" fill="#CEC4C4"/>
<g clip-path="url(#clip1_118_2)">
<rect width="582" height="26" transform="translate(158 235)" fill="#AEAEAE"/>
</g>
<rect x="119" y="517" width="10" height="293" fill="#D9D9D9"/>
<rect x="425" y="517" width="10" height="293" fill="#D9D9D9"/>
<rect x="742" y="491" width="10" height="293" fill="#D9D9D9"/>
<rect x="577.533" y="524.7" width="147.705" height="75.6139" transform="rotate(-12.91 577.533 524.7)" fill="#D9D9D9"/>
<rect x="576.589" y="606.961" width="152.974" height="76.3216" transform="rotate(-12.91 576.589 606.961)" fill="#D9D9D9"/>
<rect x="577.499" y="688.724" width="152.219" height="77.4657" transform="rotate(-12.91 577.499 688.724)" fill="#D9D9D9"/>
<rect x="721" y="494" width="21" height="290" fill="#AEAEAE"/>
<path d="M760 490L647 517V491L760 466V490Z" fill="#D9D9D9"/>
<path d="M735 759.647L622 784V760.549L735 738V759.647Z" fill="#D9D9D9"/>
<rect x="98" y="517" width="21" height="293" fill="#AEAEAE"/>
<rect x="404" y="516" width="21" height="293" fill="#AEAEAE"/>
<rect x="618" y="517" width="10" height="293" fill="#D9D9D9"/>
<rect x="597" y="517" width="21" height="293" fill="#AEAEAE"/>
<rect x="430" y="521" width="164" height="78" fill="#AEAEAE"/>
<rect x="430" y="603" width="164" height="78" fill="#AEAEAE"/>
<rect x="430" y="685" width="164" height="78" fill="#AEAEAE"/>
<rect x="430" y="768" width="167" height="16" fill="#AEAEAE"/>
<ellipse cx="514" cy="567" rx="19" ry="18" fill="#D9D9D9"/>
<ellipse cx="514" cy="649" rx="19" ry="18" fill="#D9D9D9"/>
<ellipse cx="514" cy="733" rx="19" ry="18" fill="#D9D9D9"/>
<rect x="1042" y="703" width="195" height="51" fill="white"/>
<rect x="1042" y="455" width="194" height="23" fill="white"/>
<rect x="1236" y="703" width="193" height="51" fill="#C9C9C9"/>
<rect x="1236" y="455" width="193" height="23" fill="#C9C9C9"/>
<rect x="1067" y="478" width="28" height="225" fill="white"/>
<rect x="1138" y="478" width="28" height="225" fill="white"/>
<rect x="1209" y="478" width="27" height="225" fill="#C9C9C9"/>
<rect x="1111" y="478" width="27" height="225" fill="#C9C9C9"/>
<rect x="1042" y="478" width="25" height="225" fill="#C9C9C9"/>
<rect x="1236" y="478" width="27" height="225" fill="white"/>
<rect x="1333" y="478" width="27" height="225" fill="white"/>
<rect x="1405" y="478" width="24" height="225" fill="white"/>
<rect x="1307" y="478" width="27" height="225" fill="#C9C9C9"/>
<rect x="1378" y="478" width="27" height="225" fill="#C9C9C9"/>
<path d="M1236 455L1209 478H1236V455Z" fill="#C9C9C9"/>
<path d="M247.5 470.5H435L472.5 341.5H288.5L247.5 470.5Z" fill="black" stroke="black"/>
<path d="M1236 703L1209 754H1236V703Z" fill="#C9C9C9"/>
<path d="M1236 501L1263 478H1236V501Z" fill="#C9C9C9"/>
<path d="M1334 501L1361 478H1334V501Z" fill="#C9C9C9"/>
<path d="M1405 501L1432 478H1405V501Z" fill="#C9C9C9"/>
<path d="M1067 599.5V620.5L1095 597V575.5L1067 599.5Z" fill="#C9C9C9"/>
<path d="M1138 539V561L1166 537V515L1138 539Z" fill="#C9C9C9"/>
<g filter="url(#filter0_i_118_2)">
<path d="M576.5 235L547 156H669.5L644.5 235H576.5Z" fill="#CA6868"/>
</g>
<path d="M65 491H647L760 466H202.5L65 491Z" fill="#D9D9D9"/>
<g clip-path="url(#clip2_118_2)">
<rect width="582" height="26" transform="translate(65 491)" fill="#AEAEAE"/>
</g>
<path d="M501.5 392L566 385L502 486.5H460.5L501.5 392Z" fill="#999900"/>
<path d="M524.5 392L589 385L525 486.5H483.5L524.5 392Z" fill="#009900"/>
<path d="M547.5 392L612 385L548 486.5H506.5L547.5 392Z" fill="#3D0099"/>
<path d="M612 385L547.5 392L534 386L596.5 379L612 385Z" fill="#D9D9D9"/>
<path d="M589 385L524.5 392L511 386L573.5 379L589 385Z" fill="#D9D9D9"/>
<path d="M566 385L501.5 392L488 386L550.5 379L566 385Z" fill="#D9D9D9"/>
<path d="M548 386L613 379H628L563 386H548Z" fill="#D9D9D9"/>
<rect x="548" y="386" width="15" height="102" fill="#AE0E0E"/>
<rect x="487.742" y="386" width="15" height="103" transform="rotate(23.3007 487.742 386)" fill="#747441"/>
<rect x="510.742" y="386" width="15" height="103" transform="rotate(23.3007 510.742 386)" fill="#58A058"/>
<rect x="533.742" y="386" width="15" height="103" transform="rotate(23.3007 533.742 386)" fill="#512A8F"/>
<path d="M563 386V488L628 481V379L563 386Z" fill="#F63737"/>
<rect x="279" y="204" width="139" height="31" fill="#519566"/>
<rect x="418" y="204" width="53" height="31" fill="white"/>
<rect x="291" y="196" width="117" height="8" fill="#CDD620"/>
<rect x="408" y="196" width="59" height="8" fill="#FEEEEE"/>
<rect x="316" y="187" width="70" height="9" fill="#E22A2A"/>
<rect x="386" y="187" width="69" height="9" fill="#FCF3F3"/>
<rect x="168" y="472" width="165" height="8" fill="#554747"/>
<rect x="331.994" y="472.383" width="108" height="8" transform="rotate(-4.47874 331.994 472.383)" fill="#635959"/>
<rect x="472.378" y="340.412" width="6" height="134.635" transform="rotate(16.1184 472.378 340.412)" fill="#635959"/>
<path d="M1032 89L978 67H1440V89H1032Z" fill="white"/>
<path d="M168 473L249.5 466H437L333 473H168Z" fill="#554747"/>
</g>
<defs>
<filter id="filter0_i_118_2" x="543" y="156" width="126.5" height="83" filterUnits="userSpaceOnUse" color-interpolation-filters="sRGB">
<feFlood flood-opacity="0" result="BackgroundImageFix"/>
<feBlend mode="normal" in="SourceGraphic" in2="BackgroundImageFix" result="shape"/>
<feColorMatrix in="SourceAlpha" type="matrix" values="0 0 0 0 0 0 0 0 0 0 0 0 0 0 0 0 0 0 127 0" result="hardAlpha"/>
<feOffset dx="-25" dy="4"/>
<feGaussianBlur stdDeviation="2"/>
<feComposite in2="hardAlpha" operator="arithmetic" k2="-1" k3="1"/>
<feColorMatrix type="matrix" values="0 0 0 0 0 0 0 0 0 0 0 0 0 0 0 0 0 0 0.25 0"/>
<feBlend mode="normal" in2="shape" result="effect1_innerShadow_118_2"/>
</filter>
<clipPath id="clip0_118_2">
<rect width="1440" height="1024" fill="white"/>
</clipPath>
<clipPath id="clip1_118_2">
<rect width="582" height="26" fill="white" transform="translate(158 235)"/>
</clipPath>
<clipPath id="clip2_118_2">
<rect width="582" height="26" fill="white" transform="translate(65 491)"/>
</clipPath>
</defs>
</svg>
