<svg width="1440" height="1024" viewBox="0 0 1440 1024" fill="none" xmlns="http://www.w3.org/2000/svg">
<g clip-path="url(#clip0_118_2)">
<rect width="1440" height="1024" fill="white"/>
<path d="M0 764H1032L343.5 1024H0V764Z" fill="#CEC4C4" stroke="black"/>
<path d="M1440 764H1032V89H1440V764Z" fill="white" stroke="black"/>
<path d="M1430 754H1042V99H1430V754Z" fill="#4DDBFF" stroke="black"/>
<path d="M1429.5 217C1413.81 217 1398.27 213.961 1383.77 208.056C1369.27 202.151 1356.1 193.496 1345 182.585C1333.9 171.674 1325.1 158.721 1319.1 144.465C1313.09 130.209 1310 114.93 1310 99.4999L1429.5 99.5L1429.5 217Z" fill="#FBFF22"/>
<rect x="0.5" y="0.5" width="1439" height="66" fill="#AEAEAE" stroke="black"/>
<rect x="-8" y="89" width="1040" height="675" fill="#4DDBFF"/>
<path d="M247.5 483.5H435L472.5 354.5H288.5L247.5 483.5Z" fill="black" stroke="black"/>
<rect x="740" y="235" width="23" height="26" fill="#D9D9D9"/>
<path d="M166.846 265L158 261H752.679L763 265H166.846Z" fill="#D9D9D9"/>
<path d="M763 265L752.5 261H763V265Z" fill="#D9D9D9"/>
<path d="M978 67H0V89H1032L978 67Z" fill="#CEC4C4"/>
<g clip-path="url(#clip1_118_2)">
<rect width="582" height="26" transform="translate(158 235)" fill="white"/>
</g>
<rect x="119" y="517" width="10" height="293" fill="#D9D9D9"/>
<rect x="425" y="517" width="10" height="293" fill="#D9D9D9"/>
<rect x="742" y="517" width="10" height="289" fill="#D9D9D9"/>
<rect x="647" y="491" width="116" height="26" fill="#D9D9D9"/>
<rect x="98" y="517" width="21" height="293" fill="white"/>
<rect x="594" y="603" width="127" height="78" fill="#C0C0C0"/>
<rect x="594" y="685" width="127" height="78" fill="#C0C0C0"/>
<rect x="594" y="521" width="127" height="78" fill="#C0C0C0"/>
<rect x="404" y="517" width="21" height="293" fill="white"/>
<rect x="721" y="517" width="21" height="289" fill="white"/>
<rect x="597" y="768" width="139" height="16" fill="#D3D3D3"/>
<rect x="618" y="517" width="10" height="293" fill="#D9D9D9"/>
<rect x="597" y="517" width="21" height="293" fill="white"/>
<rect x="430" y="521" width="164" height="78" fill="white"/>
<rect x="430" y="603" width="164" height="78" fill="white"/>
<rect x="430" y="685" width="164" height="78" fill="white"/>
<rect x="430" y="768" width="167" height="16" fill="white"/>
<ellipse cx="514" cy="567" rx="19" ry="18" fill="#D9D9D9"/>
<ellipse cx="514" cy="649" rx="19" ry="18" fill="#D9D9D9"/>
<ellipse cx="514" cy="733" rx="19" ry="18" fill="#D9D9D9"/>
<rect x="1042" y="703" width="195" height="51" fill="white"/>
<rect x="1042" y="455" width="194" height="23" fill="white"/>
<rect x="1236" y="703" width="193" height="51" fill="#C9C9C9"/>
<rect x="1236" y="455" width="193" height="23" fill="#C9C9C9"/>
<rect x="1067" y="478" width="28" height="225" fill="white"/>
<rect x="1138" y="478" width="28" height="225" fill="white"/>
<rect x="1209" y="478" width="27" height="225" fill="#C9C9C9"/>
<rect x="1111" y="478" width="27" height="225" fill="#C9C9C9"/>
<rect x="1042" y="478" width="25" height="225" fill="#C9C9C9"/>
<rect x="1236" y="478" width="27" height="225" fill="white"/>
<rect x="1333" y="478" width="27" height="225" fill="white"/>
<rect x="1405" y="478" width="24" height="225" fill="white"/>
<rect x="1307" y="478" width="27" height="225" fill="#C9C9C9"/>
<rect x="1378" y="478" width="27" height="225" fill="#C9C9C9"/>
<path d="M1236 455L1209 478H1236V455Z" fill="#C9C9C9"/>
<path d="M1236 703L1209 754H1236V703Z" fill="#C9C9C9"/>
<path d="M1236 501L1263 478H1236V501Z" fill="#C9C9C9"/>
<path d="M1334 501L1361 478H1334V501Z" fill="#C9C9C9"/>
<path d="M1405 501L1432 478H1405V501Z" fill="#C9C9C9"/>
<path d="M1067 599.5V620.5L1095 597V575.5L1067 599.5Z" fill="#C9C9C9"/>
<path d="M1138 539V561L1166 537V515L1138 539Z" fill="#C9C9C9"/>
<g filter="url(#filter0_i_118_2)">
<path d="M576.5 235L547 156H669.5L644.5 235H576.5Z" fill="#CA6868"/>
</g>
<rect x="500.823" y="397.304" width="65" height="102" transform="rotate(23.3 500.823 397.304)" fill="#999900"/>
<rect x="523.823" y="396.304" width="65" height="102" transform="rotate(23.3 523.823 396.304)" fill="#009900"/>
<rect x="546.823" y="396.304" width="65" height="102" transform="rotate(23.3 546.823 396.304)" fill="#3D0099"/>
<rect x="548" y="389" width="15" height="102" fill="#AE0E0E"/>
<g clip-path="url(#clip2_118_2)">
<rect width="582" height="26" transform="translate(65 491)" fill="white"/>
</g>
<rect x="487.742" y="391" width="15" height="103" transform="rotate(23.3007 487.742 391)" fill="#747441"/>
<rect x="510.742" y="390" width="15" height="103" transform="rotate(23.3007 510.742 390)" fill="#58A058"/>
<rect x="533.742" y="390" width="15" height="103" transform="rotate(23.3007 533.742 390)" fill="#512A8F"/>
<rect x="563" y="389" width="65" height="102" fill="#F63737"/>
<rect x="279" y="204" width="139" height="31" fill="#519566"/>
<rect x="418" y="204" width="53" height="31" fill="white"/>
<rect x="291" y="196" width="117" height="8" fill="#CDD620"/>
<rect x="408" y="196" width="59" height="8" fill="#FEEEEE"/>
<rect x="316" y="187" width="70" height="9" fill="#E22A2A"/>
<rect x="386" y="187" width="69" height="9" fill="#FCF3F3"/>
<rect x="168" y="483" width="165" height="8" fill="#554747"/>
<rect x="333" y="483" width="108" height="8" fill="#635959"/>
<rect x="472.378" y="353.412" width="6" height="134.635" transform="rotate(16.1184 472.378 353.412)" fill="#635959"/>
<path d="M1032 89L978 67H1440V89H1032Z" fill="white"/>
</g>
<defs>
<filter id="filter0_i_118_2" x="543" y="156" width="126.5" height="83" filterUnits="userSpaceOnUse" color-interpolation-filters="sRGB">
<feFlood flood-opacity="0" result="BackgroundImageFix"/>
<feBlend mode="normal" in="SourceGraphic" in2="BackgroundImageFix" result="shape"/>
<feColorMatrix in="SourceAlpha" type="matrix" values="0 0 0 0 0 0 0 0 0 0 0 0 0 0 0 0 0 0 127 0" result="hardAlpha"/>
<feOffset dx="-25" dy="4"/>
<feGaussianBlur stdDeviation="2"/>
<feComposite in2="hardAlpha" operator="arithmetic" k2="-1" k3="1"/>
<feColorMatrix type="matrix" values="0 0 0 0 0 0 0 0 0 0 0 0 0 0 0 0 0 0 0.25 0"/>
<feBlend mode="normal" in2="shape" result="effect1_innerShadow_118_2"/>
</filter>
<clipPath id="clip0_118_2">
<rect width="1440" height="1024" fill="white"/>
</clipPath>
<clipPath id="clip1_118_2">
<rect width="582" height="26" fill="white" transform="translate(158 235)"/>
</clipPath>
<clipPath id="clip2_118_2">
<rect width="582" height="26" fill="white" transform="translate(65 491)"/>
</clipPath>
</defs>
</svg>
